<svg xmlns="http://www.w3.org/2000/svg" viewBox="0 0 800 400">
  <!-- Background gradient -->
  <defs>
    <linearGradient id="headerGradient" x1="0%" y1="0%" x2="100%" y2="100%">
      <stop offset="0%" style="stop-color:#F4511E;stop-opacity:0.7" />
      <stop offset="100%" style="stop-color:#6200EE;stop-opacity:0.8" />
    </linearGradient>
    <linearGradient id="gridGradient" x1="0%" y1="0%" x2="100%" y2="100%">
      <stop offset="0%" style="stop-color:#FFFFFF;stop-opacity:0.05" />
      <stop offset="100%" style="stop-color:#FFFFFF;stop-opacity:0.2" />
    </linearGradient>
  </defs>
  
  <!-- Main background -->
  <rect width="800" height="400" fill="url(#headerGradient)" />
  
  <!-- Grid pattern -->
  <g opacity="0.3">
    <path d="M0 80 L800 80" stroke="#FFFFFF" stroke-width="0.5" />
    <path d="M0 160 L800 160" stroke="#FFFFFF" stroke-width="0.5" />
    <path d="M0 240 L800 240" stroke="#FFFFFF" stroke-width="0.5" />
    <path d="M0 320 L800 320" stroke="#FFFFFF" stroke-width="0.5" />
    
    <path d="M100 0 L100 400" stroke="#FFFFFF" stroke-width="0.5" />
    <path d="M200 0 L200 400" stroke="#FFFFFF" stroke-width="0.5" />
    <path d="M300 0 L300 400" stroke="#FFFFFF" stroke-width="0.5" />
    <path d="M400 0 L400 400" stroke="#FFFFFF" stroke-width="0.5" />
    <path d="M500 0 L500 400" stroke="#FFFFFF" stroke-width="0.5" />
    <path d="M600 0 L600 400" stroke="#FFFFFF" stroke-width="0.5" />
    <path d="M700 0 L700 400" stroke="#FFFFFF" stroke-width="0.5" />
  </g>
  
  <!-- Decorative elements -->
  <circle cx="650" cy="100" r="60" fill="rgba(255,255,255,0.15)" />
  <circle cx="150" cy="300" r="80" fill="rgba(255,255,255,0.1)" />
  
  <!-- Abstract shapes -->
  <polygon points="400,50 450,150 350,150" fill="rgba(255,255,255,0.2)" />
  <rect x="100" y="200" width="150" height="150" rx="20" opacity="0.15" fill="#FFFFFF" />
  
  <!-- Category icon -->
  <g transform="translate(400,200) scale(3)">
    <path d="M-25 -25 L25 -25 L25 25 L-25 25 Z" fill="none" stroke="white" stroke-width="2" stroke-dasharray="5,5" opacity="0.7" />
    <path d="M-15 -15 L-15 15 L15 15 L15 -15 Z" fill="none" stroke="white" stroke-width="2" />
    <path d="M-5 -5 L-5 5 L5 5 L5 -5 Z" fill="white" opacity="0.9" />
  </g>
</svg>